<svg width="960" height="640" viewBox="0 0 960 640" fill="none" xmlns="http://www.w3.org/2000/svg">
  <rect width="960" height="640" rx="36" fill="#0F172A"/>
  <rect x="34" y="30" width="892" height="580" rx="28" fill="#F8FAFC"/>
  <rect x="64" y="64" width="832" height="68" rx="18" fill="#E2E8F0"/>
  <rect x="88" y="86" width="176" height="24" rx="12" fill="#CBD5E1"/>
  <rect x="672" y="82" width="194" height="32" rx="16" fill="#0EA5E9"/>
  <rect x="64" y="164" width="508" height="392" rx="24" fill="#FFFFFF"/>
  <rect x="600" y="164" width="296" height="392" rx="24" fill="#E0F2FE"/>
  <rect x="92" y="192" width="206" height="34" rx="14" fill="#DBEAFE"/>
  <rect x="92" y="252" width="452" height="58" rx="16" fill="#F8FAFC" stroke="#E2E8F0"/>
  <rect x="92" y="326" width="452" height="58" rx="16" fill="#F8FAFC" stroke="#E2E8F0"/>
  <rect x="92" y="400" width="452" height="58" rx="16" fill="#F8FAFC" stroke="#E2E8F0"/>
  <rect x="92" y="488" width="220" height="40" rx="14" fill="#0F172A"/>
  <rect x="624" y="198" width="244" height="20" rx="10" fill="#7DD3FC"/>
  <rect x="624" y="242" width="244" height="64" rx="18" fill="#FFFFFF" opacity="0.88"/>
  <rect x="624" y="326" width="244" height="64" rx="18" fill="#FFFFFF" opacity="0.88"/>
  <rect x="624" y="410" width="244" height="64" rx="18" fill="#FFFFFF" opacity="0.88"/>
  <rect x="624" y="498" width="244" height="34" rx="17" fill="#0284C7"/>
  <text x="108" y="215" fill="#1E293B" font-family="Arial, sans-serif" font-size="18" font-weight="700">Satış Listesi</text>
  <text x="114" y="288" fill="#334155" font-family="Arial, sans-serif" font-size="20">Ülker Süt 1L</text>
  <text x="446" y="288" fill="#0F172A" font-family="Arial, sans-serif" font-size="20" font-weight="700">₺45,00</text>
  <text x="114" y="362" fill="#334155" font-family="Arial, sans-serif" font-size="20">Tam Buğday Ekmek</text>
  <text x="433" y="362" fill="#0F172A" font-family="Arial, sans-serif" font-size="20" font-weight="700">₺12,50</text>
  <text x="114" y="436" fill="#334155" font-family="Arial, sans-serif" font-size="20">Erikli 0.5L</text>
  <text x="450" y="436" fill="#0F172A" font-family="Arial, sans-serif" font-size="20" font-weight="700">₺8,00</text>
  <text x="116" y="514" fill="#F8FAFC" font-family="Arial, sans-serif" font-size="18" font-weight="700">Toplam: ₺65,50</text>
  <text x="624" y="183" fill="#0369A1" font-family="Arial, sans-serif" font-size="18" font-weight="700">Ödeme Özeti</text>
  <text x="648" y="280" fill="#0F172A" font-family="Arial, sans-serif" font-size="20" font-weight="700">Nakit</text>
  <text x="799" y="280" fill="#0369A1" font-family="Arial, sans-serif" font-size="20" font-weight="700">₺25,50</text>
  <text x="648" y="364" fill="#0F172A" font-family="Arial, sans-serif" font-size="20" font-weight="700">Kart</text>
  <text x="809" y="364" fill="#0369A1" font-family="Arial, sans-serif" font-size="20" font-weight="700">₺40,00</text>
  <text x="648" y="448" fill="#0F172A" font-family="Arial, sans-serif" font-size="20" font-weight="700">KDV</text>
  <text x="815" y="448" fill="#0369A1" font-family="Arial, sans-serif" font-size="20" font-weight="700">₺8,34</text>
  <text x="706" y="521" fill="#F8FAFC" font-family="Arial, sans-serif" font-size="18" font-weight="700">Ödeme Al</text>
</svg>