<svg width="960" height="640" viewBox="0 0 960 640" fill="none" xmlns="http://www.w3.org/2000/svg">
  <rect width="960" height="640" rx="36" fill="#082F49"/>
  <rect x="34" y="30" width="892" height="580" rx="28" fill="#F8FAFC"/>
  <rect x="64" y="64" width="224" height="512" rx="24" fill="#0F172A"/>
  <rect x="320" y="64" width="576" height="92" rx="24" fill="#FFFFFF"/>
  <rect x="320" y="184" width="576" height="392" rx="24" fill="#FFFFFF"/>
  <rect x="350" y="92" width="210" height="36" rx="14" fill="#DBEAFE"/>
  <rect x="700" y="92" width="166" height="36" rx="18" fill="#10B981"/>
  <rect x="350" y="214" width="516" height="52" rx="16" fill="#F8FAFC" stroke="#E2E8F0"/>
  <rect x="350" y="284" width="516" height="52" rx="16" fill="#F8FAFC" stroke="#E2E8F0"/>
  <rect x="350" y="354" width="516" height="52" rx="16" fill="#F8FAFC" stroke="#E2E8F0"/>
  <rect x="350" y="424" width="516" height="52" rx="16" fill="#F8FAFC" stroke="#E2E8F0"/>
  <rect x="350" y="494" width="516" height="52" rx="16" fill="#F8FAFC" stroke="#E2E8F0"/>
  <rect x="92" y="110" width="144" height="22" rx="11" fill="#334155"/>
  <rect x="92" y="162" width="104" height="14" rx="7" fill="#1E293B"/>
  <rect x="92" y="206" width="104" height="14" rx="7" fill="#1E293B"/>
  <rect x="92" y="250" width="104" height="14" rx="7" fill="#1E293B"/>
  <rect x="92" y="294" width="104" height="14" rx="7" fill="#1E293B"/>
  <rect x="92" y="366" width="104" height="14" rx="7" fill="#1E293B"/>
  <rect x="92" y="410" width="104" height="14" rx="7" fill="#1E293B"/>
  <text x="90" y="126" fill="#F8FAFC" font-family="Arial, sans-serif" font-size="18" font-weight="700">Envanter</text>
  <text x="372" y="115" fill="#1E293B" font-family="Arial, sans-serif" font-size="20" font-weight="700">Stok Uyari Merkezi</text>
  <text x="748" y="116" fill="#F0FDF4" font-family="Arial, sans-serif" font-size="18" font-weight="700">Yeni Urun</text>
  <text x="372" y="246" fill="#334155" font-family="Arial, sans-serif" font-size="20">Coca Cola 1L</text>
  <text x="705" y="246" fill="#DC2626" font-family="Arial, sans-serif" font-size="18" font-weight="700">Kritik: 6</text>
  <text x="372" y="316" fill="#334155" font-family="Arial, sans-serif" font-size="20">Yudum Aygicek Yagi</text>
  <text x="686" y="316" fill="#F59E0B" font-family="Arial, sans-serif" font-size="18" font-weight="700">Azaliyor</text>
  <text x="372" y="386" fill="#334155" font-family="Arial, sans-serif" font-size="20">Eti Burcak</text>
  <text x="728" y="386" fill="#10B981" font-family="Arial, sans-serif" font-size="18" font-weight="700">Normal</text>
  <text x="372" y="456" fill="#334155" font-family="Arial, sans-serif" font-size="20">Nohut 1kg</text>
  <text x="719" y="456" fill="#DC2626" font-family="Arial, sans-serif" font-size="18" font-weight="700">Kritik: 2</text>
  <text x="372" y="526" fill="#334155" font-family="Arial, sans-serif" font-size="20">Pirinç Baldo</text>
  <text x="703" y="526" fill="#10B981" font-family="Arial, sans-serif" font-size="18" font-weight="700">Yeterli</text>
</svg>