<svg width="960" height="640" viewBox="0 0 960 640" fill="none" xmlns="http://www.w3.org/2000/svg">
  <rect width="960" height="640" rx="36" fill="#111827"/>
  <rect x="34" y="30" width="892" height="580" rx="28" fill="#FFF7ED"/>
  <rect x="64" y="64" width="832" height="84" rx="22" fill="#FFFFFF"/>
  <rect x="64" y="180" width="256" height="176" rx="24" fill="#FFFFFF"/>
  <rect x="352" y="180" width="256" height="176" rx="24" fill="#FFFFFF"/>
  <rect x="640" y="180" width="256" height="176" rx="24" fill="#FFFFFF"/>
  <rect x="64" y="388" width="544" height="188" rx="24" fill="#FFFFFF"/>
  <rect x="640" y="388" width="256" height="188" rx="24" fill="#FFFFFF"/>
  <rect x="94" y="92" width="184" height="28" rx="14" fill="#FFEDD5"/>
  <rect x="754" y="88" width="112" height="36" rx="18" fill="#EA580C"/>
  <rect x="112" y="254" width="26" height="62" rx="13" fill="#FB923C"/>
  <rect x="156" y="232" width="26" height="84" rx="13" fill="#FDBA74"/>
  <rect x="200" y="210" width="26" height="106" rx="13" fill="#EA580C"/>
  <rect x="244" y="260" width="26" height="56" rx="13" fill="#FED7AA"/>
  <circle cx="480" cy="268" r="72" fill="#FFEDD5"/>
  <path d="M480 196C519.765 196 552 228.235 552 268H480V196Z" fill="#EA580C"/>
  <path d="M552 268C552 307.765 519.765 340 480 340C440.235 340 408 307.765 408 268H552Z" fill="#FB923C"/>
  <rect x="672" y="224" width="192" height="18" rx="9" fill="#FED7AA"/>
  <rect x="672" y="268" width="144" height="18" rx="9" fill="#FDBA74"/>
  <rect x="672" y="312" width="168" height="18" rx="9" fill="#EA580C"/>
  <path d="M110 508C160 462 194 470 236 494C280 518 322 542 368 490C414 438 466 430 526 474" stroke="#EA580C" stroke-width="12" stroke-linecap="round"/>
  <circle cx="236" cy="494" r="10" fill="#EA580C"/>
  <circle cx="368" cy="490" r="10" fill="#EA580C"/>
  <circle cx="526" cy="474" r="10" fill="#EA580C"/>
  <rect x="672" y="432" width="192" height="22" rx="11" fill="#FFEDD5"/>
  <rect x="672" y="474" width="192" height="22" rx="11" fill="#FFEDD5"/>
  <rect x="672" y="516" width="120" height="28" rx="14" fill="#EA580C"/>
  <text x="110" y="112" fill="#9A3412" font-family="Arial, sans-serif" font-size="18" font-weight="700">Haftalik Rapor Ozeti</text>
  <text x="785" y="111" fill="#FFF7ED" font-family="Arial, sans-serif" font-size="16" font-weight="700">DIŞA AKTAR</text>
  <text x="95" y="220" fill="#1F2937" font-family="Arial, sans-serif" font-size="18" font-weight="700">Kategori Satışları</text>
  <text x="382" y="220" fill="#1F2937" font-family="Arial, sans-serif" font-size="18" font-weight="700">Ödeme Dağılımı</text>
  <text x="672" y="220" fill="#1F2937" font-family="Arial, sans-serif" font-size="18" font-weight="700">En Çok Satanlar</text>
  <text x="95" y="424" fill="#1F2937" font-family="Arial, sans-serif" font-size="18" font-weight="700">7 Günlük Ciro Trendi</text>
  <text x="672" y="424" fill="#1F2937" font-family="Arial, sans-serif" font-size="18" font-weight="700">Hızlı İçgörü</text>
</svg>